<?xml version="1.0" encoding="utf-8"?>
<!-- Generator: Adobe Illustrator 22.1.0, SVG Export Plug-In . SVG Version: 6.00 Build 0)  -->
<svg version="1.1" id="Capa_1" xmlns="http://www.w3.org/2000/svg" xmlns:xlink="http://www.w3.org/1999/xlink" x="0px" y="0px"
	 viewBox="0 0 572.2 572.2" style="enable-background:new 0 0 572.2 572.2;" xml:space="preserve">
<style type="text/css">
	.st0{fill:#3C818B;}
</style>
<g>
	<g>
		<path class="st0" d="M286.1,572.2c157.8,0,286.1-128.4,286.1-286.1S443.9,0,286.1,0S0,128.3,0,286.1S128.3,572.2,286.1,572.2z
			 M286.1,45.9c132.5,0,240.2,107.8,240.2,240.2c0,132.5-107.8,240.2-240.2,240.2S45.9,418.6,45.9,286.1
			C45.9,153.7,153.7,45.9,286.1,45.9z"/>
		<path class="st0" d="M322.4,352c4.8,1.7,8.6,7.4,8.6,12.5v27.8c0,5.1,2.9,6.3,6.5,2.7l134.5-134.5c3.6-3.6,3.6-9.4,0-13L337.4,113
			c-3.6-3.6-6.5-2.4-6.5,2.7v30.9c0,5.1-4.1,9.2-9.2,9.4c-114.9,5.7-207.2,120.4-211.9,236.3c-0.2,5.1,2.1,5.7,5.1,1.7
			C179.1,308.6,290.7,340.6,322.4,352z"/>
	</g>
</g>
</svg>
